<svg width="173" height="24" viewBox="0 0 173 24" fill="none" xmlns="http://www.w3.org/2000/svg">
<rect width="173" height="24" fill="black"/>
<path d="M173 24.0039H0V0H2V22.0039H24V0H26V22.0039H36V14.0039H38V22.0039H48V0H50V22.0039H51V0H53V22.0039H63V15H65V22.0039H75V0H77V22.0039H99V0H101V22.0039H123V0H125V22.0039H147V0H149V22.0039H159V15.0039H161V22.0039H171V0H173V24.0039ZM137 18.0039H135V15.0039H137V18.0039ZM140 18.0039H138V15.0039H140V18.0039ZM143 18.0039H141V15.0039H143V18.0039ZM146 18.0039H144V15.0039H146V18.0039ZM167 18.0039H165V15.0039H167V18.0039ZM170 18.0039H168V15.0039H170V18.0039ZM71 18H69V15H71V18ZM74 18H72V15H74V18ZM14 16H12V0H14V16ZM89 16H87V0H89V16ZM113 16H111V0H113V16ZM116 16H114V0H116V16ZM119 16H117V0H119V16ZM122 16H120V0H122V16ZM29 14H27V11H29V14ZM32 14H30V11H32V14ZM44 14H42V11H44V14ZM47 14H45V11H47V14ZM65 11H63V8H65V11ZM68 11H66V8H68V11ZM71 11H69V8H71V11ZM137 11H135V8H137V11ZM140 11H138V8H140V11ZM143 11H141V8H143V11ZM146 11H144V8H146V11ZM161 11H159V8H161V11ZM164 11H162V8H164V11ZM167 11H165V8H167V11ZM38 10H36V0H38V10ZM5 4H3V0H5V4ZM8 4H6V0H8V4ZM11 4H9V0H11V4ZM17 4H15V0H17V4ZM20 4H18V0H20V4ZM23 4H21V0H23V4ZM29 4H27V0H29V4ZM32 4H30V0H32V4ZM35 4H33V0H35V4ZM41 4H39V0H41V4ZM44 4H42V0H44V4ZM47 4H45V0H47V4ZM56 4H54V0H56V4ZM59 4H57V0H59V4ZM62 4H60V0H62V4ZM65 4H63V0H65V4ZM68 4H66V0H68V4ZM71 4H69V0H71V4ZM74 4H72V0H74V4ZM80 4H78V0H80V4ZM83 4H81V0H83V4ZM86 4H84V0H86V4ZM92 4H90V0H92V4ZM95 4H93V0H95V4ZM98 4H96V0H98V4ZM104 4H102V0H104V4ZM107 4H105V0H107V4ZM110 4H108V0H110V4ZM128 4H126V0H128V4ZM131 4H129V0H131V4ZM134 4H132V0H134V4ZM137 4H135V0H137V4ZM140 4H138V0H140V4ZM143 4H141V0H143V4ZM146 4H144V0H146V4ZM152 4H150V0H152V4ZM155 4H153V0H155V4ZM158 4H156V0H158V4ZM161 4H159V0H161V4ZM164 4H162V0H164V4ZM167 4H165V0H167V4ZM170 4H168V0H170V4Z" fill="white"/>
</svg>
