<svg width="140" height="140" viewBox="0 0 140 140" fill="none" xmlns="http://www.w3.org/2000/svg">
<rect width="140" height="140" fill="#172C57"/>
<path d="M40.6899 88.7913C53.874 97.2299 61.4438 96.9816 75.2187 88.7913L73.2272 102.003C61.3899 108.539 54.6783 108.769 42.5455 102.003L40.6899 88.7913Z" fill="#22C7FA"/>
<path d="M71.7614 34.8875L64.9164 59.174L75.0493 59.174L73.4456 62.2997C72.5265 64.0909 70.2272 64.7536 68.3845 63.7584" stroke="white" stroke-width="2" stroke-miterlimit="11.4737" stroke-linecap="square"/>
<ellipse cx="2.63925" cy="2.57341" rx="2.63925" ry="2.57341" transform="matrix(0.876628 -0.481169 0.51907 0.854732 75.6377 46.5457)" fill="white"/>
<ellipse cx="2.63926" cy="2.57343" rx="2.63926" ry="2.57343" transform="matrix(0.876703 -0.481031 0.519211 0.854646 54.5635 45.6567)" fill="white"/>
<path d="M61.6305 21.8648C62.117 21.6034 62.2995 20.9971 62.0381 20.5106C61.7767 20.0241 61.1704 19.8416 60.6839 20.103L61.6305 21.8648ZM39.916 39.2293L38.9226 39.1147L39.916 39.2293ZM40.7561 31.9447L39.7626 31.8302L38.9226 39.1147L39.916 39.2293L40.9094 39.3438L41.7495 32.0593L40.7561 31.9447ZM34.8425 35.1219L35.3157 36.0028L61.6305 21.8648L61.1572 20.9839L60.6839 20.103L34.3692 34.241L34.8425 35.1219ZM39.916 39.2293L38.9226 39.1147C37.8915 48.055 44.6526 55.9966 53.6429 56.4052L53.6883 55.4062L53.7337 54.4073C45.9014 54.0513 40.0112 47.1326 40.9094 39.3438L39.916 39.2293Z" fill="white"/>
<path d="M101.306 23.5304C101.587 23.0552 102.201 22.898 102.676 23.1794C103.151 23.4608 103.308 24.0742 103.027 24.5494L101.306 23.5304ZM95.1882 36.1953L96.1584 35.9531L97.8065 42.5545L96.8363 42.7967L95.8661 43.0389L94.218 36.4375L95.1882 36.1953ZM91.0894 42.7478L90.2289 42.2383L101.306 23.5304L102.167 24.0399L103.027 24.5494L91.9499 43.2573L91.0894 42.7478ZM96.8363 42.7967L97.8065 42.5545C99.8278 50.6509 93.2943 58.3367 84.9781 57.6455L85.061 56.649L85.1438 55.6524C92.0947 56.2301 97.5555 49.8061 95.8661 43.0389L96.8363 42.7967Z" fill="white"/>
<path d="M74.2305 85.9056C74.2304 88.4778 71.9968 90.4842 69.1455 91.7894C66.2064 93.1348 62.2159 93.9408 57.8623 93.9408C53.5089 93.9407 49.519 93.1348 46.5801 91.7894C43.7288 90.4842 41.4952 88.4778 41.4951 85.9056C41.4951 83.3335 43.7288 81.3271 46.5801 80.0218C49.5191 78.6765 53.5088 77.8705 57.8623 77.8705C62.216 77.8705 66.2064 78.6764 69.1455 80.0219C71.9968 81.3271 74.2305 83.3335 74.2305 85.9056Z" stroke="white" stroke-width="2"/>
<path d="M117.477 72.1086C117.477 74.6808 115.243 76.6872 112.392 77.9924C109.453 79.3379 105.462 80.1438 101.109 80.1438C96.7555 80.1437 92.7656 79.3378 89.8267 77.9924C86.9754 76.6872 84.7418 74.6808 84.7417 72.1086C84.7417 69.5365 86.9753 67.5301 89.8267 66.2249C92.7656 64.8795 96.7554 64.0735 101.109 64.0735C105.463 64.0735 109.453 64.8794 112.392 66.2249C115.243 67.5301 117.477 69.5365 117.477 72.1086Z" stroke="white" stroke-width="2"/>
<rect x="40.5068" y="85.9559" width="1.9881" height="12.9846" fill="white"/>
<path d="M75.2305 98.7648C75.2301 100.34 74.425 101.641 73.3984 102.613C72.376 103.582 71.0037 104.363 69.4736 104.977C66.4022 106.208 62.2956 106.924 57.8623 106.924C53.4292 106.924 49.3232 106.208 46.252 104.977C44.7219 104.363 43.3496 103.582 42.3271 102.613C41.3006 101.641 40.4954 100.34 40.4951 98.7648C40.4951 98.7208 40.4978 98.6765 40.499 98.6329H42.499L42.4951 98.7648C42.4964 102.06 48.9531 104.751 57.0723 104.916L57.8623 104.924C66.2169 104.924 73.015 102.251 73.2256 98.923L73.2305 98.7648C73.2305 98.7209 73.2288 98.6766 73.2266 98.6329H75.2266C75.2278 98.6765 75.2305 98.7208 75.2305 98.7648Z" fill="white"/>
<rect x="73.2305" y="85.9559" width="1.9881" height="12.9846" fill="white"/>
<path d="M58.2876 105.744V115.833" stroke="white" stroke-width="2"/>
<path d="M101.109 80.8607V115.833" stroke="white" stroke-width="2"/>
<path d="M101.109 58.1475V71.8335" stroke="white" stroke-width="2"/>
</svg>
