<svg width="140" height="140" viewBox="0 0 140 140" fill="none" xmlns="http://www.w3.org/2000/svg">
<rect width="140" height="140" fill="#172C57"/>
<path d="M69.7067 67.8596L62.8617 92.146L72.9947 92.1461L71.5689 94.9248C70.7366 96.5469 68.3771 96.6657 67.3026 95.1394" stroke="white" stroke-width="2" stroke-miterlimit="11.4737" stroke-linecap="square"/>
<ellipse cx="2.63925" cy="2.57341" rx="2.63925" ry="2.57341" transform="matrix(0.876628 -0.481169 0.51907 0.854732 73.5825 79.5176)" fill="white"/>
<ellipse cx="2.63926" cy="2.57343" rx="2.63926" ry="2.57343" transform="matrix(0.876703 -0.481031 0.519211 0.854646 52.5083 78.6287)" fill="white"/>
<path d="M83.9639 94.635C86.5285 94.0109 89.2235 94.9153 90.8926 96.96L92.6986 99.1726" stroke="white" stroke-width="2"/>
<path d="M72.3537 34C69.9937 34 67.9137 35.56 67.247 37.8267C66.5403 37.5067 65.7937 37.3333 65.0203 37.3333C63.6059 37.3333 62.2493 37.8952 61.2491 38.8954C60.2489 39.8956 59.687 41.2522 59.687 42.6667C59.687 45.0933 61.3403 47.2133 63.687 47.8267V62.6667H81.0203V47.8267C83.367 47.2133 85.0203 45.0933 85.0203 42.6667C85.0203 41.2522 84.4584 39.8956 83.4582 38.8954C82.4581 37.8952 81.1015 37.3333 79.687 37.3333C78.9137 37.3333 78.167 37.5067 77.4603 37.8267C76.7937 35.56 74.7137 34 72.3537 34ZM71.687 46H73.0203V55.3333H71.687V46ZM67.687 48.6667H69.0203V55.3333H67.687V48.6667ZM75.687 48.6667H77.0203V55.3333H75.687V48.6667Z" fill="#22C7FA"/>
<path d="M55.9746 95.6782C54.1028 98.1179 50.4582 97.8065 48.9389 95.0772L46.7039 91.0618" stroke="white" stroke-width="2"/>
<g clip-path="url(#clip0_2139_2055)">
<path d="M107.931 84.4992C111.81 89.7574 101.582 103.355 101.582 103.355L98.4469 100.777L94.2374 105.93L91.8997 104.008L107.931 84.4992Z" fill="white"/>
</g>
<g clip-path="url(#clip1_2139_2055)">
<path d="M37.4655 93.2746C36.9888 93.042 36.6239 92.6296 36.4512 92.1281C36.2785 91.6266 36.3121 91.077 36.5447 90.6002C37.0313 89.6026 38.2303 89.1972 39.219 89.6794C39.6957 89.9119 40.0606 90.3243 40.2333 90.8258C40.406 91.3274 40.3724 91.877 40.1398 92.3537C39.9073 92.8305 39.4949 93.1953 38.9934 93.368C38.4918 93.5407 37.9423 93.5071 37.4655 93.2746ZM36.4785 83.8924C36.9651 82.8947 38.1552 82.4849 39.1528 82.9715C39.6296 83.204 39.9944 83.6164 40.1671 84.118C40.3398 84.6195 40.3062 85.1691 40.0737 85.6458C39.8412 86.1226 39.4288 86.4874 38.9272 86.6601C38.4257 86.8328 37.8761 86.7992 37.3994 86.5667C36.4017 86.0801 35.9963 84.881 36.4785 83.8924ZM43.1643 81.5902C39.9556 80.0253 36.4044 80.0066 33.3217 81.2401L34.3969 99.5661L49.5 89.1308C48.5831 85.9465 46.373 83.1552 43.1643 81.5902Z" fill="white"/>
</g>
<defs>
<clipPath id="clip0_2139_2055">
<rect width="24" height="24" fill="white" transform="translate(87.2144 84.5109) rotate(-5.57212)"/>
</clipPath>
<clipPath id="clip1_2139_2055">
<rect width="24" height="24" fill="white" transform="translate(42.6396 70.9358) rotate(54.6993)"/>
</clipPath>
</defs>
</svg>
