<svg width="140" height="140" viewBox="0 0 140 140" fill="none" xmlns="http://www.w3.org/2000/svg">
<rect width="140" height="140" fill="#172C57"/>
<path d="M78.8476 21.8259L72.0026 46.1124L82.1356 46.1124L80.4725 49.3536C79.5276 51.1953 77.3494 52.1108 75.2672 51.5413" stroke="white" stroke-width="2" stroke-miterlimit="11.4737" stroke-linecap="square"/>
<path d="M85.2384 32.5444C86.3368 31.9417 87.7254 32.3057 88.3474 33.3298C88.9694 34.3539 88.6066 35.6791 87.5083 36.2822C86.4097 36.8852 85.0204 36.5217 84.3983 35.4974C83.7764 34.4731 84.1398 33.1474 85.2384 32.5444Z" fill="white" stroke="white" stroke-width="0.773953"/>
<path d="M64.1644 31.6558C65.2629 31.0533 66.6518 31.4173 67.274 32.4413C67.8961 33.4654 67.5333 34.7903 66.4349 35.3933C65.3363 35.9961 63.9467 35.6325 63.3245 34.6083C62.7024 33.5841 63.0658 32.2586 64.1644 31.6558Z" fill="white" stroke="white" stroke-width="0.773953"/>
<path d="M65.3608 53.8682C61.8982 52.6497 58.1176 53.9306 56.1415 56.9918L51.4578 64.2473" stroke="white" stroke-width="2"/>
<path d="M99.3369 34.0011L96.8807 44.9778C96.1328 48.3199 92.8851 50.4006 89.5453 49.6772" stroke="white" stroke-width="2"/>
<circle cx="46.2998" cy="96.0981" r="11" stroke="#22C7FA" stroke-width="2"/>
<path d="M86.225 65.9187C80.9048 58.3306 68.9711 62.4881 69.5175 71.7393L69.6537 74.046L64.5364 76.0754" stroke="white" stroke-width="2"/>
<path d="M86.27 64.9482L84.8605 66.6206C79.0951 73.4615 84.8455 83.8015 93.6985 82.5125L94.1888 87.9957" stroke="white" stroke-width="2"/>
<circle cx="77.2271" cy="102.52" r="5.61191" stroke="#22C7FA" stroke-width="2"/>
<path d="M37.1321 103.335L33.2568 106.982M82.2674 105.159L85.6867 108.35" stroke="#22C7FA" stroke-width="2"/>
<path d="M81.9868 104.814V106.814H80.0415C80.7974 106.318 81.4136 105.628 81.8208 104.814H81.9868ZM58.936 70.0693H55.0181L54.1479 72.6611L72.9438 99.6846C72.4955 100.36 72.2024 101.149 72.1167 101.998L53.4106 75.1045L47.0464 96.7578L46.0874 96.4766L45.1284 96.1943L52.0815 72.5381L52.0864 72.5205L52.0923 72.5029L52.9087 70.0693H49.2134V68.0693H58.936V70.0693ZM83.8394 78.8271H80.6958L78.4741 97.5371C78.0748 97.4375 77.6572 97.3848 77.2271 97.3848C76.9703 97.3848 76.7178 97.4031 76.4712 97.4395L78.6812 78.8271H73.5991V76.8271H83.8394V78.8271Z" fill="#22C7FA"/>
</svg>
