<svg width="140" height="140" viewBox="0 0 140 140" fill="none" xmlns="http://www.w3.org/2000/svg">
<rect width="140" height="140" fill="#172C57"/>
<path d="M55.6422 66.6733L48.7972 90.9598L58.9302 90.9599L57.3264 94.0856C56.4074 95.8767 54.1081 96.5395 52.2654 95.5443" stroke="white" stroke-width="2" stroke-miterlimit="11.4737" stroke-linecap="square"/>
<ellipse cx="2.63925" cy="2.57341" rx="2.63925" ry="2.57341" transform="matrix(0.876628 -0.481169 0.51907 0.854732 59.5183 78.3314)" fill="white"/>
<ellipse cx="2.63926" cy="2.57343" rx="2.63926" ry="2.57343" transform="matrix(0.876703 -0.481031 0.519211 0.854646 38.4441 77.4426)" fill="white"/>
<path d="M86.4476 88.0711C93.8131 88.6832 99.406 81.5663 97.0697 74.5543L96.3867 72.5043L104.387 72.5043" stroke="white" stroke-width="2"/>
<g clip-path="url(#clip0_2139_2880)">
<path d="M90.3408 44.3047L93.0332 50.6475L99.9238 51.2422L101.101 51.3438L100.209 52.1172L94.9854 56.6504L96.5479 63.3867L96.8154 64.5391L95.8027 63.9277L89.8809 60.3535L83.959 63.9277L82.9443 64.54L83.2139 63.3867L84.7842 56.6494L79.5537 52.1182L78.6582 51.3418L79.8389 51.2422L86.7275 50.6572L89.4209 44.3047L89.8809 43.2197L90.3408 44.3047ZM88.6416 52.8242L88.5244 53.1025L88.2236 53.1279L85.0205 53.4053L87.4482 55.5127L87.6768 55.71L87.6074 56.0039L86.877 59.1289L89.6221 57.4717L89.8809 57.3154L90.1396 57.4717L92.8936 59.1377L92.1641 56.0137L92.0957 55.7197L92.3232 55.5225L94.751 53.416L91.5479 53.1377L91.248 53.1123L91.1309 52.835L89.8809 49.8848L88.6416 52.8242Z" fill="white" stroke="#172C57"/>
</g>
<g clip-path="url(#clip1_2139_2880)">
<path d="M99.3408 32.3047L102.033 38.6475L108.924 39.2422L110.101 39.3438L109.209 40.1172L103.985 44.6504L105.548 51.3867L105.815 52.5391L104.803 51.9277L98.8809 48.3535L92.959 51.9277L91.9443 52.54L92.2139 51.3867L93.7842 44.6494L88.5537 40.1182L87.6582 39.3418L88.8389 39.2422L95.7275 38.6572L98.4209 32.3047L98.8809 31.2197L99.3408 32.3047ZM97.6416 40.8242L97.5244 41.1025L97.2236 41.1279L94.0205 41.4053L96.4482 43.5127L96.6768 43.71L96.6074 44.0039L95.877 47.1289L98.6221 45.4717L98.8809 45.3154L99.1396 45.4717L101.894 47.1377L101.164 44.0137L101.096 43.7197L101.323 43.5225L103.751 41.416L100.548 41.1377L100.248 41.1123L100.131 40.835L98.8809 37.8848L97.6416 40.8242Z" fill="white" stroke="#172C57"/>
</g>
<g clip-path="url(#clip2_2139_2880)">
<path d="M110.341 44.3047L113.033 50.6475L119.924 51.2422L121.101 51.3438L120.209 52.1172L114.985 56.6504L116.548 63.3867L116.815 64.5391L115.803 63.9277L109.881 60.3535L103.959 63.9277L102.944 64.54L103.214 63.3867L104.784 56.6494L99.5537 52.1182L98.6582 51.3418L99.8389 51.2422L106.728 50.6572L109.421 44.3047L109.881 43.2197L110.341 44.3047ZM108.642 52.8242L108.524 53.1025L108.224 53.1279L105.021 53.4053L107.448 55.5127L107.677 55.71L107.607 56.0039L106.877 59.1289L109.622 57.4717L109.881 57.3154L110.14 57.4717L112.894 59.1377L112.164 56.0137L112.096 55.7197L112.323 55.5225L114.751 53.416L111.548 53.1377L111.248 53.1123L111.131 52.835L109.881 49.8848L108.642 52.8242Z" fill="white" stroke="#172C57"/>
</g>
<defs>
<clipPath id="clip0_2139_2880">
<rect width="24" height="24" fill="white" transform="translate(77.8809 42)"/>
</clipPath>
<clipPath id="clip1_2139_2880">
<rect width="24" height="24" fill="white" transform="translate(86.8809 30)"/>
</clipPath>
<clipPath id="clip2_2139_2880">
<rect width="24" height="24" fill="white" transform="translate(97.8809 42)"/>
</clipPath>
</defs>
</svg>
